# xmcd
#
# Track frame offsets: 
#        150
#        17382
#        30225
#        46588
#        61508
#        72955
#        91257
#        106451
#        123672
#        139988
#        155824
#
# Disc length: 2294 seconds
#
# Revision: 2
# Processed by: cddbd v1.5.2PL0 Copyright (c) Steve Scherf et al.
# Submitted via: ExactAudioCopy v1.0b2
#
DISCID=8508f40b
DTITLE=Slaid Cleaves - No Angel Knows
DYEAR=1997
DGENRE=Country
TTITLE0=Not Going Down
TTITLE1=No Angel Knows
TTITLE2=Dance Around the Fire
TTITLE3=Jennie's All Right
TTITLE4=Look Back at Me
TTITLE5=Wrecking Ball
TTITLE6=The River Runs
TTITLE7=Don't Tell Me
TTITLE8=Skunk Juice
TTITLE9=Last of the V-8s
TTITLE10=29
EXTD=
EXTT0=
EXTT1=
EXTT2=
EXTT3=
EXTT4=
EXTT5=
EXTT6=
EXTT7=
EXTT8=
EXTT9=
EXTT10=
PLAYORDER=
